<svg id="visual" viewBox="0 0 960 540" width="960" height="540" xmlns="http://www.w3.org/2000/svg" xmlns:xlink="http://www.w3.org/1999/xlink" version="1.1"><rect x="0" y="0" width="960" height="540" fill="#fff"></rect><path d="M641 540L649.5 527.2C658 514.3 675 488.7 681.3 463C687.7 437.3 683.3 411.7 678.3 386C673.3 360.3 667.7 334.7 656.5 308.8C645.3 283 628.7 257 633.3 231.2C638 205.3 664 179.7 682 154C700 128.3 710 102.7 693.2 77C676.3 51.3 632.7 25.7 610.8 12.8L589 0L960 0L960 12.8C960 25.7 960 51.3 960 77C960 102.7 960 128.3 960 154C960 179.7 960 205.3 960 231.2C960 257 960 283 960 308.8C960 334.7 960 360.3 960 386C960 411.7 960 437.3 960 463C960 488.7 960 514.3 960 527.2L960 540Z" fill="#ade8f4"></path><path d="M656 540L674.5 527.2C693 514.3 730 488.7 734.5 463C739 437.3 711 411.7 701.8 386C692.7 360.3 702.3 334.7 694.3 308.8C686.3 283 660.7 257 662 231.2C663.3 205.3 691.7 179.7 699.5 154C707.3 128.3 694.7 102.7 698.5 77C702.3 51.3 722.7 25.7 732.8 12.8L743 0L960 0L960 12.8C960 25.7 960 51.3 960 77C960 102.7 960 128.3 960 154C960 179.7 960 205.3 960 231.2C960 257 960 283 960 308.8C960 334.7 960 360.3 960 386C960 411.7 960 437.3 960 463C960 488.7 960 514.3 960 527.2L960 540Z" fill="#91dbec"></path><path d="M771 540L766.8 527.2C762.7 514.3 754.3 488.7 759.8 463C765.3 437.3 784.7 411.7 787.3 386C790 360.3 776 334.7 777.3 308.8C778.7 283 795.3 257 785.7 231.2C776 205.3 740 179.7 729.2 154C718.3 128.3 732.7 102.7 742.5 77C752.3 51.3 757.7 25.7 760.3 12.8L763 0L960 0L960 12.8C960 25.7 960 51.3 960 77C960 102.7 960 128.3 960 154C960 179.7 960 205.3 960 231.2C960 257 960 283 960 308.8C960 334.7 960 360.3 960 386C960 411.7 960 437.3 960 463C960 488.7 960 514.3 960 527.2L960 540Z" fill="#72cee5"></path><path d="M831 540L830.8 527.2C830.7 514.3 830.3 488.7 825.3 463C820.3 437.3 810.7 411.7 811.5 386C812.3 360.3 823.7 334.7 823 308.8C822.3 283 809.7 257 799.2 231.2C788.7 205.3 780.3 179.7 788 154C795.7 128.3 819.3 102.7 826.7 77C834 51.3 825 25.7 820.5 12.8L816 0L960 0L960 12.8C960 25.7 960 51.3 960 77C960 102.7 960 128.3 960 154C960 179.7 960 205.3 960 231.2C960 257 960 283 960 308.8C960 334.7 960 360.3 960 386C960 411.7 960 437.3 960 463C960 488.7 960 514.3 960 527.2L960 540Z" fill="#4dc1de"></path><path d="M883 540L878.2 527.2C873.3 514.3 863.7 488.7 863.2 463C862.7 437.3 871.3 411.7 878.7 386C886 360.3 892 334.7 891.8 308.8C891.7 283 885.3 257 888.5 231.2C891.7 205.3 904.3 179.7 908.3 154C912.3 128.3 907.7 102.7 900.2 77C892.7 51.3 882.3 25.7 877.2 12.8L872 0L960 0L960 12.8C960 25.7 960 51.3 960 77C960 102.7 960 128.3 960 154C960 179.7 960 205.3 960 231.2C960 257 960 283 960 308.8C960 334.7 960 360.3 960 386C960 411.7 960 437.3 960 463C960 488.7 960 514.3 960 527.2L960 540Z" fill="#00b4d8"></path></svg>